HIERARCHY
ROOT Hips
{
  OFFSET 55.7205 91.6312 36.6645
  CHANNELS 6 Xposition Yposition Zposition Zrotation Xrotation Yrotation
  JOINT spine
  {
    OFFSET 0 6.84637 0.3937
    CHANNELS 3 Zrotation Xrotation Yrotation
    JOINT spine1
    {
      OFFSET 0 9.49621 0
      CHANNELS 3 Zrotation Xrotation Yrotation
      JOINT spine2
      {
        OFFSET 0 9.09909 0
        CHANNELS 3 Zrotation Xrotation Yrotation
        JOINT Neck
        {
          OFFSET 0 23.3612 1.11378
          CHANNELS 3 Zrotation Xrotation Yrotation
          JOINT Head
          {
            OFFSET 0 7.05802 0
            CHANNELS 3 Zrotation Xrotation Yrotation
            End Site
            {
              OFFSET 0 17.0844 -5.63419
            }
          }
        }
        JOINT RightShoulder
        {
          OFFSET -3.83136 9.82631 -0.533491
          CHANNELS 3 Zrotation Xrotation Yrotation
          JOINT RightArm
          {
            OFFSET 0 12.8881 0
            CHANNELS 3 Zrotation Xrotation Yrotation
            JOINT RightArmRoll
            {
              OFFSET 0 6.50617 0
              CHANNELS 3 Zrotation Xrotation Yrotation
              JOINT RightForeArm
              {
                OFFSET 0 18.9501 0
                CHANNELS 3 Zrotation Xrotation Yrotation
                JOINT RightForeArmRoll
                {
                  OFFSET 0 7.30092 0
                  CHANNELS 3 Zrotation Xrotation Yrotation
                  JOINT RightHand
                  {
                    OFFSET 0 14.6514 0
                    CHANNELS 3 Zrotation Xrotation Yrotation
                    End Site
                    {
                      OFFSET 0 0 0
                    }
                  }
                }
              }
            }
          }
        }
        JOINT LeftShoulder
        {
          OFFSET 3.83136 9.82631 -0.533491
          CHANNELS 3 Zrotation Xrotation Yrotation
          JOINT LeftArm
          {
            OFFSET 0 12.8881 0
            CHANNELS 3 Zrotation Xrotation Yrotation
            JOINT LeftArmRoll
            {
              OFFSET 0 6.50617 0
              CHANNELS 3 Zrotation Xrotation Yrotation
              JOINT LeftForeArm
              {
                OFFSET 0 18.9501 0
                CHANNELS 3 Zrotation Xrotation Yrotation
                JOINT LeftForeArmRoll
                {
                  OFFSET 0 7.30092 0
                  CHANNELS 3 Zrotation Xrotation Yrotation
                  JOINT LeftHand
                  {
                    OFFSET 0 14.6514 0
                    CHANNELS 3 Zrotation Xrotation Yrotation
                    End Site
                    {
                      OFFSET 0 0 0
                    }
                  }
                }
              }
            }
          }
        }
      }
    }
  }
  JOINT RightUpLeg
  {
    OFFSET -6.06837 -1.11278 -0.933477
    CHANNELS 3 Zrotation Xrotation Yrotation
    JOINT RightUpLegRoll
    {
      OFFSET 0 17.1796 0
      CHANNELS 3 Zrotation Xrotation Yrotation
      JOINT RightLeg
      {
        OFFSET 0 -21.2743 0
        CHANNELS 3 Zrotation Xrotation Yrotation
        JOINT RightLegRoll
        {
          OFFSET 0 21.3439 0
          CHANNELS 3 Zrotation Xrotation Yrotation
          JOINT RightFoot
          {
            OFFSET 0 17.7652 0
            CHANNELS 3 Zrotation Xrotation Yrotation
            JOINT RightToeBase
            {
              OFFSET 0 14.8508 0
              CHANNELS 3 Zrotation Xrotation Yrotation
              End Site
              {
                OFFSET 0.0062947 7.19213 -0.829005
              }
            }
          }
        }
      }
    }
  }
  JOINT LeftUpLeg
  {
    OFFSET 6.06837 -1.11278 -0.933477
    CHANNELS 3 Zrotation Xrotation Yrotation
    JOINT LeftUpLegRoll
    {
      OFFSET 0 17.1797 0
      CHANNELS 3 Zrotation Xrotation Yrotation
      JOINT LeftLeg
      {
        OFFSET 0 21.2742 0
        CHANNELS 3 Zrotation Xrotation Yrotation
        JOINT LeftLegRoll
        {
          OFFSET 0 21.5412 0
          CHANNELS 3 Zrotation Xrotation Yrotation
          JOINT LeftFoot
          {
            OFFSET 0 17.5679 0
            CHANNELS 3 Zrotation Xrotation Yrotation
            JOINT LeftToeBase
            {
              OFFSET 0 14.8508 0
              CHANNELS 3 Zrotation Xrotation Yrotation
              End Site
              {
                OFFSET -0.0282102 7.19214 -0.829004
              }
            }
          }
        }
      }
    }
  }
}
MOTION
Frames: 10
Frame Time: 0.00208333
53.8026 58.465 -5.42483 -2.33122 0.893576 -2.41216 0.293303 -0.758117 0.340394 0.592031 2.51367 0.646005 0.585116 4.15864 0.636555 -0.933914 12.466 0.134004 0.717266 -4.63234 -0.0499765 67.295 2.2063 0.167362 107.576 25.3786 -17.9612 5.95572e-007 2.30176e-007 -1.71385e-006 20.2604 36.2612 -7.35329 -4.28194e-007 1.93458e-006 -3.00704 8.02899 -4.95098 0.697459 -58.5431 -3.38856 2.04262 -118.098 32.0878 16.5419 -9.18553e-007 1.72249e-006 5.61561e-006 -26.3514 18.4088 4.19763 3.23275e-006 -2.06825e-006 3 -8.03006 -4.95149 -0.69778 158.062 81.6764 24.669 -180 1.52553e-005 178.771 178.033 74.1925 178.711 -5.31001e-006 -1.63567e-006 1.71467 -17.5556 65.2373 17.4362 8.13649 25.2327 -3.48773 -103.968 72.7422 -78.0879 4.54188e-006 -4.6773e-006 -0.883635 8.48146 -81.6676 11.4107 -4.13338e-007 -2.09623e-006 -1.93981 18.1981 66.3915 -18.2569 -8.13649 25.2327 3.48773 
53.8044 58.464 -5.43002 -2.32699 0.920168 -2.41239 0.292582 -0.754094 0.340128 0.588566 2.51999 0.645579 0.581638 4.16496 0.63619 -0.907606 12.4501 0.131009 0.691347 -4.64003 -0.048442 67.2812 2.17012 0.150453 107.637 25.396 -17.9828 5.95572e-007 2.30176e-007 -1.71385e-006 20.2445 36.2907 -7.3565 -4.28194e-007 1.93458e-006 -3.00704 8.02899 -4.95098 0.697459 -58.4876 -3.38623 2.0364 -118.182 32.0676 16.4746 -9.18553e-007 1.72249e-006 5.61561e-006 -26.2739 18.4155 4.19711 3.23275e-006 -2.06825e-006 3 -8.03006 -4.95149 -0.69778 157.994 81.704 24.7365 -180 1.52553e-005 178.771 178.029 74.194 178.714 -5.31001e-006 -1.63567e-006 1.71467 -17.5558 65.2375 17.4361 8.13649 25.2327 -3.48773 -103.886 72.741 -78.1808 4.54188e-006 -4.6773e-006 -0.882644 8.44168 -81.6716 11.376 -4.13338e-007 -2.09623e-006 -1.93986 18.1981 66.3916 -18.2574 -8.13649 25.2327 3.48773 
53.8104 58.4661 -5.43916 -2.32247 0.946589 -2.41242 0.291859 -0.750002 0.339877 0.584973 2.52644 0.645182 0.578033 4.17141 0.635857 -0.880924 12.434 0.128053 0.664936 -4.64829 -0.0468158 67.2674 2.13395 0.133567 107.697 25.4126 -18.003 5.95572e-007 2.30176e-007 -1.71385e-006 20.2276 36.3213 -7.35973 -4.28194e-007 1.93458e-006 -3.00704 8.02899 -4.95098 0.697459 -58.4316 -3.38266 2.02935 -118.265 32.0454 16.4042 -9.18553e-007 1.72249e-006 5.61561e-006 -26.1941 18.4243 4.19702 3.23275e-006 -2.06825e-006 3 -8.03006 -4.95149 -0.69778 157.92 81.7313 24.8094 -180 1.52553e-005 178.771 178.024 74.1953 178.718 -5.31001e-006 -1.63567e-006 1.71467 -17.5559 65.2377 17.4358 8.13649 25.2327 -3.48773 -103.804 72.7398 -78.2741 4.54188e-006 -4.6773e-006 -0.881641 8.40084 -81.6757 11.3404 -4.13338e-007 -2.09623e-006 -1.93993 18.1983 66.3917 -18.2579 -8.13649 25.2327 3.48773 
53.7966 58.4613 -5.445 -2.31775 0.97289 -2.41232 0.291135 -0.745863 0.339635 0.581292 2.53298 0.644807 0.574337 4.17795 0.635546 -0.853981 12.4178 0.125125 0.638182 -4.65694 -0.0451253 67.2536 2.0978 0.116697 107.757 25.4286 -18.0221 5.95572e-007 2.30176e-007 -1.71385e-006 20.2099 36.3527 -7.36297 -4.28194e-007 1.93458e-006 -3.00704 8.02899 -4.95098 0.697459 -58.3754 -3.37822 2.02171 -118.349 32.0219 16.3315 -9.18553e-007 1.72249e-006 5.61561e-006 -26.1128 18.4345 4.19725 3.23275e-006 -2.06825e-006 3 -8.03006 -4.95149 -0.69778 157.842 81.7585 24.8863 -180 1.52553e-005 178.771 178.018 74.1964 178.723 -5.31001e-006 -1.63567e-006 1.71467 -17.556 65.2378 17.4356 8.13649 25.2327 -3.48773 -103.722 72.7386 -78.3676 4.54188e-006 -4.6773e-006 -0.880629 8.35926 -81.6799 11.3041 -4.13338e-007 -2.09623e-006 -1.94002 18.1984 66.3919 -18.2585 -8.13649 25.2327 3.48773 
53.8035 58.4557 -5.43562 -2.3129 0.999122 -2.41215 0.290409 -0.741697 0.339399 0.57756 2.53957 0.644443 0.57059 4.18454 0.635248 -0.826889 12.4015 0.122213 0.611231 -4.66581 -0.0433982 67.2398 2.06166 0.0998359 107.817 25.4443 -18.0407 5.95572e-007 2.30176e-007 -1.71385e-006 20.1918 36.3845 -7.36622 -4.28194e-007 1.93458e-006 -3.00704 8.02899 -4.95098 0.697459 -58.3189 -3.37329 2.01374 -118.433 31.9975 16.2576 -9.18553e-007 1.72249e-006 5.61561e-006 -26.0305 18.4456 4.19765 3.23275e-006 -2.06825e-006 3 -8.03006 -4.95149 -0.69778 157.762 81.7855 24.9656 -180 1.52553e-005 178.771 178.012 74.1974 178.728 -5.31001e-006 -1.63567e-006 1.71467 -17.5561 65.2379 17.4353 8.13649 25.2327 -3.48773 -103.64 72.7373 -78.4612 4.54188e-006 -4.6773e-006 -0.879612 8.3172 -81.6842 11.2675 -4.13338e-007 -2.09623e-006 -1.94012 18.1985 66.3921 -18.259 -8.13649 25.2327 3.48773 
53.8017 58.4646 -5.44373 -2.30803 1.02534 -2.41196 0.289684 -0.737524 0.339164 0.573815 2.54617 0.644082 0.566831 4.19114 0.634953 -0.799761 12.3852 0.119305 0.584232 -4.67474 -0.0416619 67.2259 2.02553 0.0829778 107.877 25.4599 -18.0592 5.95572e-007 2.30176e-007 -1.71385e-006 20.1736 36.4165 -7.36947 -4.28194e-007 1.93458e-006 -3.00704 8.02899 -4.95098 0.697459 -58.2624 -3.36823 2.00568 -118.517 31.9729 16.1834 -9.18553e-007 1.72249e-006 5.61561e-006 -25.9481 18.4568 4.19809 3.23275e-006 -2.06825e-006 3 -8.03006 -4.95149 -0.69778 157.681 81.8124 25.046 -180 1.52553e-005 178.771 178.006 74.1984 178.733 -5.31001e-006 -1.63567e-006 1.71467 -17.5561 65.238 17.435 8.13649 25.2327 -3.48773 -103.558 72.736 -78.5549 4.54188e-006 -4.6773e-006 -0.878593 8.27503 -81.6885 11.2307 -4.13338e-007 -2.09623e-006 -1.94022 18.1987 66.3922 -18.2596 -8.13649 25.2327 3.48773 
53.8035 58.4758 -5.43755 -2.30322 1.05159 -2.4118 0.288959 -0.733365 0.338926 0.570096 2.55274 0.643715 0.563097 4.19772 0.634652 -0.77271 12.3689 0.11639 0.557332 -4.68356 -0.0399438 67.212 1.98938 0.0661163 107.937 25.4756 -18.0779 5.95572e-007 2.30176e-007 -1.71385e-006 20.1556 36.4483 -7.37272 -4.28194e-007 1.93458e-006 -3.00704 8.02899 -4.95098 0.697459 -58.206 -3.36342 1.99779 -118.601 31.9486 16.1099 -9.18553e-007 1.72249e-006 5.61561e-006 -25.8661 18.4677 4.19845 3.23275e-006 -2.06825e-006 3 -8.03006 -4.95149 -0.69778 157.601 81.8394 25.1258 -180 1.52553e-005 178.771 178 74.1995 178.738 -5.31001e-006 -1.63567e-006 1.71467 -17.5562 65.2381 17.4347 8.13649 25.2327 -3.48773 -103.476 72.7346 -78.6485 4.54188e-006 -4.6773e-006 -0.877578 8.23302 -81.6927 11.1941 -4.13338e-007 -2.09623e-006 -1.94032 18.1988 66.3924 -18.2601 -8.13649 25.2327 3.48773 
53.7938 58.4664 -5.44357 -2.29855 1.07792 -2.41175 0.288235 -0.72924 0.338682 0.56644 2.55926 0.643333 0.559428 4.20423 0.634335 -0.745849 12.3527 0.113456 0.530678 -4.69209 -0.0382716 67.1981 1.95323 0.0492448 107.997 25.4918 -18.0974 5.95572e-007 2.30176e-007 -1.71385e-006 20.1382 36.4794 -7.37598 -4.28194e-007 1.93458e-006 -3.00704 8.02899 -4.95098 0.697459 -58.1498 -3.35923 1.99032 -118.685 31.9252 16.0381 -9.18553e-007 1.72249e-006 5.61561e-006 -25.7852 18.4775 4.19858 3.23275e-006 -2.06825e-006 3 -8.03006 -4.95149 -0.69778 157.522 81.8665 25.2038 -180 1.52553e-005 178.771 177.994 74.2006 178.743 -5.31001e-006 -1.63567e-006 1.71467 -17.5563 65.2383 17.4345 8.13649 25.2327 -3.48773 -103.394 72.7332 -78.7418 4.54188e-006 -4.6773e-006 -0.876568 8.19149 -81.6969 11.1578 -4.13338e-007 -2.09623e-006 -1.9404 18.199 66.3926 -18.2607 -8.13649 25.2327 3.48773 
53.798 58.4531 -5.41346 -2.29412 1.10439 -2.41184 0.287513 -0.725169 0.338426 0.562887 2.56567 0.642928 0.555861 4.21065 0.633992 -0.71929 12.3367 0.11049 0.504418 -4.70018 -0.0366726 67.1842 1.91706 0.032357 108.057 25.5085 -18.118 5.95572e-007 2.30176e-007 -1.71385e-006 20.1216 36.5097 -7.37923 -4.28194e-007 1.93458e-006 -3.00704 8.02899 -4.95098 0.697459 -58.094 -3.35603 1.98352 -118.769 31.9033 15.9689 -9.18553e-007 1.72249e-006 5.61561e-006 -25.7061 18.4856 4.19837 3.23275e-006 -2.06825e-006 3 -8.03006 -4.95149 -0.69778 157.447 81.8939 25.2782 -180 1.52553e-005 178.771 177.99 74.202 178.747 -5.31001e-006 -1.63567e-006 1.71467 -17.5565 65.2385 17.4343 8.13649 25.2327 -3.48773 -103.312 72.7318 -78.8349 4.54188e-006 -4.6773e-006 -0.875568 8.15075 -81.701 11.1223 -4.13338e-007 -2.09623e-006 -1.94047 18.1991 66.3927 -18.2612 -8.13649 25.2327 3.48773 
53.8009 58.4622 -5.42068 -2.29001 1.13106 -2.41215 0.286793 -0.721172 0.338154 0.559473 2.57194 0.64249 0.552435 4.21692 0.633614 -0.693146 12.3208 0.107482 0.478699 -4.70764 -0.0351745 67.1703 1.88086 0.0154464 108.118 25.5261 -18.1403 5.95572e-007 2.30176e-007 -1.71385e-006 20.1061 36.5387 -7.38249 -4.28194e-007 1.93458e-006 -3.00704 8.02899 -4.95098 0.697459 -58.0387 -3.3542 1.97764 -118.854 31.8834 15.9032 -9.18553e-007 1.72249e-006 5.61561e-006 -25.6295 18.4915 4.19767 3.23275e-006 -2.06825e-006 3 -8.03006 -4.95149 -0.69778 157.376 81.9215 25.3477 -180 1.52553e-005 178.771 177.986 74.2035 178.75 -5.31001e-006 -1.63567e-006 1.71467 -17.5566 65.2387 17.4341 8.13649 25.2327 -3.48773 -103.23 72.7302 -78.9275 4.54188e-006 -4.6773e-006 -0.874582 8.11111 -81.7049 11.0876 -4.13338e-007 -2.09623e-006 -1.94051 18.1991 66.3928 -18.2617 -8.13649 25.2327 3.48773 
